<?xml version="1.0" encoding="us-ascii" standalone="no"?><svg xmlns="http://www.w3.org/2000/svg" xmlns:xlink="http://www.w3.org/1999/xlink" contentStyleType="text/css" height="696px" preserveAspectRatio="none" style="width:949px;height:696px;background:#FFFFFF;" version="1.1" viewBox="0 0 949 696" width="949px" zoomAndPan="magnify"><defs/><g><rect fill="none" height="191.9297" style="stroke:#000000;stroke-width:1.5;" width="703" x="10" y="53.2969"/><rect fill="none" height="384.5938" style="stroke:#000000;stroke-width:1.5;" width="631" x="312" y="259.2266"/><rect fill="none" height="266.0625" style="stroke:#000000;stroke-width:1.5;" width="495" x="438" y="370.7578"/><rect fill="none" height="161.6641" style="stroke:#000000;stroke-width:1.5;" width="475" x="448" y="468.1563"/><line style="stroke:#181818;stroke-width:0.5;stroke-dasharray:5.0,5.0;" x1="63" x2="63" y1="36.2969" y2="660.8203"/><line style="stroke:#181818;stroke-width:0.5;stroke-dasharray:5.0,5.0;" x1="162" x2="162" y1="36.2969" y2="660.8203"/><line style="stroke:#181818;stroke-width:0.5;stroke-dasharray:5.0,5.0;" x1="265" x2="265" y1="36.2969" y2="660.8203"/><line style="stroke:#181818;stroke-width:0.5;stroke-dasharray:5.0,5.0;" x1="385" x2="385" y1="36.2969" y2="660.8203"/><line style="stroke:#181818;stroke-width:0.5;stroke-dasharray:5.0,5.0;" x1="527" x2="527" y1="36.2969" y2="660.8203"/><line style="stroke:#181818;stroke-width:0.5;stroke-dasharray:5.0,5.0;" x1="655" x2="655" y1="36.2969" y2="660.8203"/><line style="stroke:#181818;stroke-width:0.5;stroke-dasharray:5.0,5.0;" x1="787" x2="787" y1="36.2969" y2="660.8203"/><rect fill="#E2E2F0" height="30.2969" rx="2.5" ry="2.5" style="stroke:#181818;stroke-width:0.5;" width="86" x="20" y="5"/><text fill="#000000" font-family="sans-serif" font-size="14" lengthAdjust="spacing" textLength="72" x="27" y="24.9951">FetchTask</text><rect fill="#E2E2F0" height="30.2969" rx="2.5" ry="2.5" style="stroke:#181818;stroke-width:0.5;" width="86" x="20" y="659.8203"/><text fill="#000000" font-family="sans-serif" font-size="14" lengthAdjust="spacing" textLength="72" x="27" y="679.8154">FetchTask</text><rect fill="#E2E2F0" height="30.2969" rx="2.5" ry="2.5" style="stroke:#181818;stroke-width:0.5;" width="93" x="116" y="5"/><text fill="#000000" font-family="sans-serif" font-size="14" lengthAdjust="spacing" textLength="79" x="123" y="24.9951">SplitReader</text><rect fill="#E2E2F0" height="30.2969" rx="2.5" ry="2.5" style="stroke:#181818;stroke-width:0.5;" width="93" x="116" y="659.8203"/><text fill="#000000" font-family="sans-serif" font-size="14" lengthAdjust="spacing" textLength="79" x="123" y="679.8154">SplitReader</text><rect fill="#E2E2F0" height="30.2969" rx="2.5" ry="2.5" style="stroke:#181818;stroke-width:0.5;" width="93" x="219" y="5"/><text fill="#000000" font-family="sans-serif" font-size="14" lengthAdjust="spacing" textLength="79" x="226" y="24.9951">SplitRecord</text><rect fill="#E2E2F0" height="30.2969" rx="2.5" ry="2.5" style="stroke:#181818;stroke-width:0.5;" width="93" x="219" y="659.8203"/><text fill="#000000" font-family="sans-serif" font-size="14" lengthAdjust="spacing" textLength="79" x="226" y="679.8154">SplitRecord</text><rect fill="#E2E2F0" height="30.2969" rx="2.5" ry="2.5" style="stroke:#181818;stroke-width:0.5;" width="126" x="322" y="5"/><text fill="#000000" font-family="sans-serif" font-size="14" lengthAdjust="spacing" textLength="112" x="329" y="24.9951">ElementsQueue</text><rect fill="#E2E2F0" height="30.2969" rx="2.5" ry="2.5" style="stroke:#181818;stroke-width:0.5;" width="126" x="322" y="659.8203"/><text fill="#000000" font-family="sans-serif" font-size="14" lengthAdjust="spacing" textLength="112" x="329" y="679.8154">ElementsQueue</text><rect fill="#E2E2F0" height="30.2969" rx="2.5" ry="2.5" style="stroke:#181818;stroke-width:0.5;" width="139" x="458" y="5"/><text fill="#000000" font-family="sans-serif" font-size="14" lengthAdjust="spacing" textLength="125" x="465" y="24.9951">RecordsWithSplits</text><rect fill="#E2E2F0" height="30.2969" rx="2.5" ry="2.5" style="stroke:#181818;stroke-width:0.5;" width="139" x="458" y="659.8203"/><text fill="#000000" font-family="sans-serif" font-size="14" lengthAdjust="spacing" textLength="125" x="465" y="679.8154">RecordsWithSplits</text><rect fill="#E2E2F0" height="30.2969" rx="2.5" ry="2.5" style="stroke:#181818;stroke-width:0.5;" width="96" x="607" y="5"/><text fill="#000000" font-family="sans-serif" font-size="14" lengthAdjust="spacing" textLength="82" x="614" y="24.9951">SplitFetcher</text><rect fill="#E2E2F0" height="30.2969" rx="2.5" ry="2.5" style="stroke:#181818;stroke-width:0.5;" width="96" x="607" y="659.8203"/><text fill="#000000" font-family="sans-serif" font-size="14" lengthAdjust="spacing" textLength="82" x="614" y="679.8154">SplitFetcher</text><rect fill="#E2E2F0" height="30.2969" rx="2.5" ry="2.5" style="stroke:#181818;stroke-width:0.5;" width="148" x="713" y="5"/><text fill="#000000" font-family="sans-serif" font-size="14" lengthAdjust="spacing" textLength="134" x="720" y="24.9951">SourceReaderBase</text><rect fill="#E2E2F0" height="30.2969" rx="2.5" ry="2.5" style="stroke:#181818;stroke-width:0.5;" width="148" x="713" y="659.8203"/><text fill="#000000" font-family="sans-serif" font-size="14" lengthAdjust="spacing" textLength="134" x="720" y="679.8154">SourceReaderBase</text><path d="M10,53.2969 L126,53.2969 L126,60.4297 L116,70.4297 L10,70.4297 L10,53.2969 " fill="#EEEEEE" style="stroke:#000000;stroke-width:1.5;"/><rect fill="none" height="191.9297" style="stroke:#000000;stroke-width:1.5;" width="703" x="10" y="53.2969"/><text fill="#000000" font-family="sans-serif" font-size="13" font-weight="bold" lengthAdjust="spacing" textLength="71" x="25" y="66.3638">fetch &#36923;&#36753;</text><polygon fill="#181818" points="150.5,87.5625,160.5,91.5625,150.5,95.5625,154.5,91.5625" style="stroke:#181818;stroke-width:1.0;"/><line style="stroke:#181818;stroke-width:1.0;" x1="63" x2="156.5" y1="91.5625" y2="91.5625"/><text fill="#000000" font-family="sans-serif" font-size="13" lengthAdjust="spacing" textLength="32" x="70" y="86.4966">fetch</text><polygon fill="#181818" points="74,116.6953,64,120.6953,74,124.6953,70,120.6953" style="stroke:#181818;stroke-width:1.0;"/><line style="stroke:#181818;stroke-width:1.0;stroke-dasharray:2.0,2.0;" x1="68" x2="264.5" y1="120.6953" y2="120.6953"/><text fill="#000000" font-family="sans-serif" font-size="13" lengthAdjust="spacing" textLength="113" x="80" y="115.6294">RecordsWithSplits</text><polygon fill="#181818" points="373,145.8281,383,149.8281,373,153.8281,377,149.8281" style="stroke:#181818;stroke-width:1.0;"/><line style="stroke:#181818;stroke-width:1.0;" x1="63" x2="379" y1="149.8281" y2="149.8281"/><text fill="#000000" font-family="sans-serif" font-size="13" lengthAdjust="spacing" textLength="66" x="70" y="144.7622">put record</text><polygon fill="#181818" points="515.5,174.9609,525.5,178.9609,515.5,182.9609,519.5,178.9609" style="stroke:#181818;stroke-width:1.0;"/><line style="stroke:#181818;stroke-width:1.0;" x1="63" x2="521.5" y1="178.9609" y2="178.9609"/><text fill="#000000" font-family="sans-serif" font-size="13" lengthAdjust="spacing" textLength="84" x="70" y="173.895">finishedSplits</text><polygon fill="#181818" points="74,204.0938,64,208.0938,74,212.0938,70,208.0938" style="stroke:#181818;stroke-width:1.0;"/><line style="stroke:#181818;stroke-width:1.0;stroke-dasharray:2.0,2.0;" x1="68" x2="526.5" y1="208.0938" y2="208.0938"/><text fill="#000000" font-family="sans-serif" font-size="13" lengthAdjust="spacing" textLength="113" x="80" y="203.0278">&#36820;&#22238;&#23436;&#25104;&#30340; splitIds</text><polygon fill="#181818" points="643,233.2266,653,237.2266,643,241.2266,647,237.2266" style="stroke:#181818;stroke-width:1.0;"/><line style="stroke:#181818;stroke-width:1.0;" x1="63" x2="649" y1="237.2266" y2="237.2266"/><text fill="#000000" font-family="sans-serif" font-size="13" lengthAdjust="spacing" textLength="217" x="70" y="232.1606">&#23558; splitIds &#20174; assignedSplits &#20013;&#28165;&#29702;</text><path d="M312,259.2266 L427,259.2266 L427,266.3594 L417,276.3594 L312,276.3594 L312,259.2266 " fill="#EEEEEE" style="stroke:#000000;stroke-width:1.5;"/><rect fill="none" height="384.5938" style="stroke:#000000;stroke-width:1.5;" width="631" x="312" y="259.2266"/><text fill="#000000" font-family="sans-serif" font-size="13" font-weight="bold" lengthAdjust="spacing" textLength="70" x="327" y="272.2935">&#35835;&#25968;&#25454;&#36923;&#36753;</text><polygon fill="#181818" points="396,293.4922,386,297.4922,396,301.4922,392,297.4922" style="stroke:#181818;stroke-width:1.0;"/><line style="stroke:#181818;stroke-width:1.0;" x1="390" x2="786" y1="297.4922" y2="297.4922"/><text fill="#000000" font-family="sans-serif" font-size="13" lengthAdjust="spacing" textLength="22" x="402" y="292.4263">poll</text><polygon fill="#181818" points="775,322.625,785,326.625,775,330.625,779,326.625" style="stroke:#181818;stroke-width:1.0;"/><line style="stroke:#181818;stroke-width:1.0;stroke-dasharray:2.0,2.0;" x1="385" x2="781" y1="326.625" y2="326.625"/><text fill="#000000" font-family="sans-serif" font-size="13" lengthAdjust="spacing" textLength="113" x="392" y="321.5591">RecordsWithSplits</text><polygon fill="#181818" points="538.5,351.7578,528.5,355.7578,538.5,359.7578,534.5,355.7578" style="stroke:#181818;stroke-width:1.0;"/><line style="stroke:#181818;stroke-width:1.0;" x1="532.5" x2="786" y1="355.7578" y2="355.7578"/><text fill="#000000" font-family="sans-serif" font-size="13" lengthAdjust="spacing" textLength="72" x="544.5" y="350.6919">nextRecord</text><path d="M438,370.7578 L502,370.7578 L502,377.8906 L492,387.8906 L438,387.8906 L438,370.7578 " fill="#EEEEEE" style="stroke:#000000;stroke-width:1.5;"/><rect fill="none" height="266.0625" style="stroke:#000000;stroke-width:1.5;" width="495" x="438" y="370.7578"/><text fill="#000000" font-family="sans-serif" font-size="13" font-weight="bold" lengthAdjust="spacing" textLength="19" x="453" y="383.8247">alt</text><text fill="#000000" font-family="sans-serif" font-size="11" font-weight="bold" lengthAdjust="spacing" textLength="104" x="517" y="382.9683">[record not null]</text><line style="stroke:#181818;stroke-width:1.0;" x1="787" x2="829" y1="409.0234" y2="409.0234"/><line style="stroke:#181818;stroke-width:1.0;" x1="829" x2="829" y1="409.0234" y2="422.0234"/><line style="stroke:#181818;stroke-width:1.0;" x1="788" x2="829" y1="422.0234" y2="422.0234"/><polygon fill="#181818" points="798,418.0234,788,422.0234,798,426.0234,794,422.0234" style="stroke:#181818;stroke-width:1.0;"/><text fill="#000000" font-family="sans-serif" font-size="13" lengthAdjust="spacing" textLength="52" x="794" y="403.9575">&#22788;&#29702;&#28040;&#24687;</text><line style="stroke:#000000;stroke-width:1.0;stroke-dasharray:2.0,2.0;" x1="438" x2="933" y1="431.0234" y2="431.0234"/><polygon fill="#181818" points="538.5,449.1563,528.5,453.1563,538.5,457.1563,534.5,453.1563" style="stroke:#181818;stroke-width:1.0;"/><line style="stroke:#181818;stroke-width:1.0;" x1="532.5" x2="786" y1="453.1563" y2="453.1563"/><text fill="#000000" font-family="sans-serif" font-size="13" lengthAdjust="spacing" textLength="56" x="544.5" y="448.0903">nextSplit</text><path d="M448,468.1563 L512,468.1563 L512,475.2891 L502,485.2891 L448,485.2891 L448,468.1563 " fill="#EEEEEE" style="stroke:#000000;stroke-width:1.5;"/><rect fill="none" height="161.6641" style="stroke:#000000;stroke-width:1.5;" width="475" x="448" y="468.1563"/><text fill="#000000" font-family="sans-serif" font-size="13" font-weight="bold" lengthAdjust="spacing" textLength="19" x="463" y="481.2231">alt</text><text fill="#000000" font-family="sans-serif" font-size="11" font-weight="bold" lengthAdjust="spacing" textLength="120" x="527" y="480.3667">[nextSplit not null]</text><line style="stroke:#181818;stroke-width:1.0;" x1="787" x2="829" y1="506.4219" y2="506.4219"/><line style="stroke:#181818;stroke-width:1.0;" x1="829" x2="829" y1="506.4219" y2="519.4219"/><line style="stroke:#181818;stroke-width:1.0;" x1="788" x2="829" y1="519.4219" y2="519.4219"/><polygon fill="#181818" points="798,515.4219,788,519.4219,798,523.4219,794,519.4219" style="stroke:#181818;stroke-width:1.0;"/><text fill="#000000" font-family="sans-serif" font-size="13" lengthAdjust="spacing" textLength="91" x="794" y="501.356">&#22788;&#29702;&#19979;&#19968;&#20010;&#20999;&#29255;</text><line style="stroke:#000000;stroke-width:1.0;stroke-dasharray:2.0,2.0;" x1="448" x2="923" y1="528.4219" y2="528.4219"/><polygon fill="#181818" points="538.5,546.5547,528.5,550.5547,538.5,554.5547,534.5,550.5547" style="stroke:#181818;stroke-width:1.0;"/><line style="stroke:#181818;stroke-width:1.0;" x1="532.5" x2="786" y1="550.5547" y2="550.5547"/><text fill="#000000" font-family="sans-serif" font-size="13" lengthAdjust="spacing" textLength="84" x="544.5" y="545.4888">finishedSplits</text><polygon fill="#181818" points="775,575.6875,785,579.6875,775,583.6875,779,579.6875" style="stroke:#181818;stroke-width:1.0;"/><line style="stroke:#181818;stroke-width:1.0;stroke-dasharray:2.0,2.0;" x1="527.5" x2="781" y1="579.6875" y2="579.6875"/><text fill="#000000" font-family="sans-serif" font-size="13" lengthAdjust="spacing" textLength="113" x="534.5" y="574.6216">&#36820;&#22238;&#23436;&#25104;&#30340; splitIds</text><line style="stroke:#181818;stroke-width:1.0;" x1="787" x2="829" y1="608.8203" y2="608.8203"/><line style="stroke:#181818;stroke-width:1.0;" x1="829" x2="829" y1="608.8203" y2="621.8203"/><line style="stroke:#181818;stroke-width:1.0;" x1="788" x2="829" y1="621.8203" y2="621.8203"/><polygon fill="#181818" points="798,617.8203,788,621.8203,798,625.8203,794,621.8203" style="stroke:#181818;stroke-width:1.0;"/><text fill="#000000" font-family="sans-serif" font-size="13" lengthAdjust="spacing" textLength="117" x="794" y="603.7544">&#22788;&#29702;&#24050;&#32463;&#23436;&#25104;&#30340;&#20999;&#29255;</text></g></svg>